<svg width="88" height="39" viewBox="0 0 88 39" fill="none" xmlns="http://www.w3.org/2000/svg">
<path d="M37.5782 19.3402C37.5782 17.0432 37.1425 14.8524 36.3829 12.8203C36.1819 19.5089 29.3756 24.6875 25.3794 28.1144H35.3819C36.7801 25.498 37.5782 22.5127 37.5782 19.3402ZM30.3472 4.61227C27.1803 2.14967 23.2094 0.668701 18.8847 0.668701C8.56024 0.668701 0.19043 9.02867 0.19043 19.3402C0.19043 29.6516 8.56024 38.0113 18.8847 38.0113C23.6125 38.0113 27.9172 36.2447 31.2093 33.3533H17.6753L17.6339 29.3834C25.7888 22.3027 30.7877 17.5141 30.7877 12.8886C30.7877 11.1697 30.1323 9.00047 27.1822 9.00047C24.8462 9.00047 22.5924 10.3521 23.002 15.9996H18.2492C17.0605 9.45142 20.6256 4.25297 27.4273 4.25297C28.4819 4.25297 29.4571 4.37865 30.3472 4.61227Z" fill="#A3C626"/>
<path d="M54.6923 13.5737H59.1139C59.265 10.2145 58.1318 4.89136 50.838 4.89136C45.4708 4.89136 41.5781 8.10052 41.5781 14.7816C41.5781 15.6877 41.6156 20.3683 41.6156 23.2748C41.6156 30.5233 46.6428 32.1083 50.8755 32.1083C53.4077 32.1083 57.0736 31.5419 58.7739 29.6924V18.1413H50.4595V22.3313H54.1636V27.4277C51.3666 28.3712 46.2643 28.7489 46.2643 22.3313V14.7816C46.2643 10.2896 48.3433 8.74206 50.6482 8.74206C53.0295 8.74206 54.6923 9.95002 54.6923 13.5737ZM87.5825 24.7847C87.7711 14.4423 75.9048 17.8768 76.0173 12.1015C76.055 10.0636 77.3781 8.74206 79.5327 8.74206C81.8379 8.74206 83.1977 10.101 83.1599 13.6498H87.5063C87.62 10.4406 86.864 4.9672 79.6839 4.9672C75.2241 4.9672 71.5584 7.15705 71.4825 12.0263C71.2936 21.9533 83.2361 18.7075 83.0475 24.7096C82.9713 27.163 81.1946 28.2576 79.1923 28.2576C76.8494 28.2576 74.9595 26.8987 75.3377 22.8219H70.9527C70.4617 28.2202 72.843 32.0709 79.1545 32.0709C84.483 32.0709 87.5063 29.1258 87.5825 24.7847ZM67.6168 31.7303H63.158V5.30682H67.6168V31.7303ZM67.6168 31.7303H63.158V5.30682H67.6168V31.7303Z" fill="#434242"/>
</svg>
