<svg width="30" height="30" viewBox="0 0 30 30" fill="none" xmlns="http://www.w3.org/2000/svg">
<path d="M23.8607 8.22C23.7647 7.8597 23.5694 7.476 23.4251 7.14C21.6974 2.988 17.9225 1.5 14.8745 1.5C10.7942 1.5 6.3002 4.236 5.7002 9.8757V11.028C5.7002 11.076 5.7167 11.508 5.7404 11.724C6.0767 14.4117 8.1974 17.268 9.7814 19.9557C11.4854 22.8354 13.2536 25.668 15.0059 28.4994C16.0859 26.6517 17.1623 24.7797 18.218 22.9797C18.5057 22.4514 18.8393 21.9234 19.1273 21.4194C19.3193 21.0837 19.6859 20.748 19.8536 20.4357C21.5573 17.3166 24.3002 14.172 24.3002 11.076V9.804C24.3002 9.4683 23.8841 8.2923 23.8607 8.22ZM14.9492 14.004C13.7498 14.004 12.437 13.4043 11.789 11.748C11.6924 11.4843 11.7002 10.956 11.7002 10.9077V10.1637C11.7002 8.0523 13.493 7.092 15.0527 7.092C16.9727 7.092 18.458 8.6283 18.458 10.5483C18.458 12.4683 16.8692 14.004 14.9492 14.004Z" fill="#51CACD"/>
</svg>
