<svg width="24" height="24" viewBox="0 0 24 24" fill="none" xmlns="http://www.w3.org/2000/svg">
<path d="M19.3455 13.4007L17.9467 11.7555C17.0438 10.6934 17.1827 9.82713 17.2199 8.44701C17.2275 8.1649 17.044 7.91094 16.7726 7.83345L15.1544 7.37166C14.8231 7.27718 14.4687 7.46979 14.3914 7.80555C14.1227 8.97433 13.1539 10.0892 12.0001 10.0892C10.8425 10.0892 9.87135 9.00002 9.60605 7.83702C9.53053 7.50576 9.18165 7.31419 8.85341 7.40178L7.2136 7.83912C6.93672 7.91297 6.74812 8.16896 6.75625 8.45551C6.79277 9.73997 6.90981 10.7295 6.02941 11.7701L4.62256 13.4328C3.9734 14.2001 3.61719 15.1726 3.61719 16.1777V19.6747C3.61719 20.6451 4.40383 21.4318 5.37422 21.4318H18.582C19.5766 21.4318 20.3829 20.6255 20.3829 19.6309V16.2225C20.3829 15.1886 20.0152 14.1884 19.3455 13.4007ZM12 18.3339C10.3277 18.3339 8.97204 16.9782 8.97204 15.3059C8.97204 13.6335 10.3277 12.2778 12 12.2778C13.6724 12.2778 15.028 13.6335 15.028 15.3059C15.028 16.9782 13.6724 18.3339 12 18.3339Z" fill="#51CACD"/>
<path d="M22.9192 5.78325C20.6464 3.89397 16.4199 2.56793 12.0003 2.56812C7.58065 2.56793 3.35423 3.89397 1.08146 5.78325C0.3035 6.42988 -0.190685 8.49618 0.50997 9.85623C1.01801 10.8422 1.61784 11.263 2.69072 10.9359L4.47959 10.2007C5.18049 10.0217 5.35709 9.56845 5.20963 8.77386C4.88576 7.02933 5.36941 6.47355 6.93789 6.07558C8.40147 5.70416 10.4263 5.65968 12.0003 5.65968C13.5741 5.65968 15.5989 5.70416 17.0626 6.07558C18.631 6.47355 19.1146 7.02933 18.7908 8.77386C18.6434 9.56845 18.82 10.0217 19.5209 10.2007L21.3097 10.9359C22.3827 11.263 22.9826 10.8422 23.4905 9.85623C24.1913 8.49625 23.697 6.42988 22.9192 5.78325Z" fill="#51CACD"/>
</svg>
