<svg width="143" height="55" viewBox="0 0 143 55" fill="none" xmlns="http://www.w3.org/2000/svg">
<g filter="url(#filter0_d_940_249)">
<path d="M125.044 38.5178C127.424 38.5178 129.11 38.0925 130.366 37.1764V33.0214C129.077 33.9047 127.523 34.4609 125.342 34.4609C121.673 34.4609 120.153 31.6473 120.153 27.1977C120.153 22.5192 122.004 20.1309 125.375 20.1309C127.358 20.1309 129.308 20.8179 130.333 21.4723V17.1536C129.242 16.5647 127.358 16.1394 124.78 16.1394C118.202 16.1394 114.798 20.8179 114.798 27.3613C114.831 34.5263 118.169 38.5178 125.044 38.5178ZM92.8841 36.6202V32.4652C91.2975 33.5448 88.5872 34.4936 86.1082 34.4936C82.3402 34.4936 80.9189 32.7269 80.6876 29.128H93.1154V26.4453C93.1154 18.9531 89.7771 16.1394 84.6539 16.1394C78.3739 16.1394 75.3991 20.8834 75.3991 27.394C75.3991 34.8862 79.1341 38.5178 85.6786 38.5178C88.9508 38.5178 91.3636 37.6345 92.8841 36.6202ZM45.7177 16.532V25.0384H38.8428V16.532H33.6865V38.0925H38.8428V29.0953H45.7177V38.0925H50.874V16.532H45.7177ZM74.1101 34.0356H71.8294V16.532H56.8235V18.3642C56.8235 23.6316 56.4929 30.4367 54.675 34.0356H53.0224V43H57.782V38.0925H69.3174V43H74.077V34.0356H74.1101ZM109.311 38.0925H115.162L106.898 26.478L114.17 16.532H108.981L101.709 26.478V16.532H96.5529V38.0925H101.709V27.4922L109.311 38.0925ZM84.5217 20.1309C87.0668 20.1309 87.86 22.2248 87.86 24.9403V25.3656H80.6876C80.8198 21.9303 82.0758 20.1309 84.5217 20.1309ZM66.6732 34.0356H59.4016C60.8229 30.7966 61.2195 24.9076 61.2195 21.1778V20.5235H66.6732V34.0356Z" fill="black"/>
<path d="M29.3895 38.0925H24.1341V12.3443H21.7874C17.4905 12.3443 15.2429 14.4709 15.2429 17.6444C15.2429 21.2433 16.7964 22.9118 20.0025 25.0384L22.6467 26.8052L15.0446 38.0925H9.39258L16.2345 28.0157C12.3012 25.2347 10.0867 22.5192 10.0867 17.9389C10.0867 12.2134 14.1191 8.32007 21.7543 8.32007H29.3565L29.3895 38.0925Z" fill="#FC3F1D"/>
</g>
<defs>
<filter id="filter0_d_940_249" x="-8" y="-4" width="156" height="64" filterUnits="userSpaceOnUse" color-interpolation-filters="sRGB">
<feFlood flood-opacity="0" result="BackgroundImageFix"/>
<feColorMatrix in="SourceAlpha" type="matrix" values="0 0 0 0 0 0 0 0 0 0 0 0 0 0 0 0 0 0 127 0" result="hardAlpha"/>
<feOffset dx="2" dy="2"/>
<feGaussianBlur stdDeviation="5"/>
<feComposite in2="hardAlpha" operator="out"/>
<feColorMatrix type="matrix" values="0 0 0 0 0 0 0 0 0 0 0 0 0 0 0 0 0 0 0.15 0"/>
<feBlend mode="normal" in2="BackgroundImageFix" result="effect1_dropShadow_940_249"/>
<feBlend mode="normal" in="SourceGraphic" in2="effect1_dropShadow_940_249" result="shape"/>
</filter>
</defs>
</svg>
