<svg viewBox="0 0 18 24" xmlns="http://www.w3.org/2000/svg">
<g clip-path="url(#clip0_844_295)">
<path fill-rule="evenodd" clip-rule="evenodd" d="M18 6.31575V22.1051C18 23.1517 17.1661 24 16.1379 24H1.86208C0.83351 24 0 23.1517 0 22.1051V1.89488C0 0.84825 0.83351 0 1.86208 0H11.7929L18 6.31575Z" fill="#51CACD"/>
<path fill-rule="evenodd" clip-rule="evenodd" d="M18.0001 5.96212V6.74813H12.9259C11.8753 6.74813 11.3907 5.87813 11.3907 4.80525V0H12.1592L18.0001 5.96212Z" fill="#2C7D80"/>
<path fill-rule="evenodd" clip-rule="evenodd" d="M13.8145 12.7678C13.6543 12.7138 13.5 12.6864 13.3513 12.6864C13.1823 12.6864 13.0662 12.722 13.0026 12.7933C12.9395 12.8645 12.9079 12.9905 12.9079 13.1717V13.5178H13.618V14.213H12.9079V17.0762H12.0475V14.213H11.6042V13.5178H12.0475V13.1717C12.0475 12.7307 12.1548 12.4119 12.3693 12.215C12.5839 12.0182 12.9064 11.9199 13.3377 11.9199C13.5401 11.9199 13.7546 11.948 13.9813 12.0047L13.8145 12.7678ZM10.2108 16.73C10.0506 16.868 9.88167 16.9779 9.70387 17.0593C9.52608 17.1407 9.32404 17.1812 9.09738 17.1812C8.6573 17.1812 8.32044 17.0195 8.08718 16.6963C7.85355 16.3727 7.7371 15.9159 7.7371 15.3257C7.7371 14.7219 7.8653 14.2528 8.12208 13.9179C8.37885 13.5834 8.73922 13.4158 9.20391 13.4158C9.36849 13.4158 9.5371 13.4503 9.71049 13.5193C9.88387 13.5883 10.0275 13.676 10.1406 13.7822V12.0249H11.001V17.0762H10.2108V16.73ZM10.1406 14.5048C10.0495 14.4212 9.93677 14.3469 9.80232 14.2824C9.66787 14.2183 9.53049 14.186 9.39053 14.186C9.15947 14.186 8.97396 14.2873 8.834 14.4894C8.69367 14.6919 8.62387 14.966 8.62387 15.3122C8.62387 15.6538 8.68118 15.9215 8.79542 16.1162C8.91004 16.3108 9.0871 16.4079 9.32734 16.4079C9.46951 16.4079 9.61461 16.3745 9.76228 16.3078C9.90996 16.241 10.0363 16.1589 10.1406 16.0618V14.5048ZM6.46351 16.9505C6.25228 17.1043 6.00028 17.1812 5.70677 17.1812C5.31996 17.1812 4.99008 17.0582 4.71677 16.8114V18.416H3.85645V13.5178H4.64991V13.8669C4.81008 13.7267 4.97832 13.6164 5.15502 13.5362C5.33171 13.4559 5.53449 13.4158 5.76334 13.4158C6.20563 13.4158 6.54249 13.574 6.77355 13.8909C7.00461 14.2074 7.12032 14.6675 7.12032 15.2713C7.12032 15.6538 7.06375 15.9905 6.95024 16.2823C6.83673 16.574 6.67473 16.7968 6.46351 16.9505ZM6.05685 14.4759C5.93894 14.2824 5.76334 14.186 5.53008 14.186C5.39012 14.186 5.24612 14.2194 5.09845 14.2858C4.9504 14.3525 4.8233 14.4347 4.71677 14.5318V16.0888C4.80787 16.1728 4.92065 16.2467 5.0551 16.3112C5.18955 16.3757 5.32767 16.4079 5.4702 16.4079C5.70567 16.4079 5.89191 16.3055 6.02857 16.1008C6.16522 15.896 6.23355 15.6242 6.23355 15.2852C6.23355 14.939 6.1744 14.6694 6.05685 14.4759Z" fill="white"/>
</g>
<defs>
<clipPath id="clip0_844_295">
<rect width="18" height="24" fill="white"/>
</clipPath>
</defs>
</svg>
