<svg viewBox="0 0 26 26" xmlns="http://www.w3.org/2000/svg">
<g clip-path="url(#clip0_908_357)">
<path d="M13 0C10.4288 0 7.91543 0.762437 5.77759 2.1909C3.63975 3.61935 1.97351 5.64968 0.989572 8.02512C0.00563272 10.4006 -0.251811 13.0144 0.249797 15.5362C0.751405 18.0579 1.98954 20.3743 3.80762 22.1924C5.6257 24.0105 7.94208 25.2486 10.4638 25.7502C12.9856 26.2518 15.5995 25.9944 17.9749 25.0104C20.3503 24.0265 22.3807 22.3603 23.8091 20.2224C25.2376 18.0846 26 15.5712 26 13C25.9963 9.55333 24.6254 6.24889 22.1883 3.81173C19.7511 1.37456 16.4467 0.00372784 13 0ZM17.5955 16.0648C17.7986 16.2679 17.9127 16.5434 17.9127 16.8307C17.9127 17.1179 17.7986 17.3934 17.5955 17.5966C17.3889 17.793 17.1147 17.9026 16.8296 17.9026C16.5445 17.9026 16.2703 17.793 16.0637 17.5966L13 14.5318L9.93634 17.5966C9.73181 17.7971 9.45682 17.9094 9.17042 17.9094C8.88402 17.9094 8.60904 17.7971 8.40451 17.5966C8.20141 17.3934 8.08732 17.1179 8.08732 16.8307C8.08732 16.5434 8.20141 16.2679 8.40451 16.0648L11.4682 13L8.40451 9.93525C8.30104 9.83532 8.21851 9.71578 8.16173 9.5836C8.10495 9.45143 8.07507 9.30928 8.07382 9.16544C8.07257 9.02159 8.09998 8.87894 8.15445 8.7458C8.20892 8.61266 8.28936 8.49171 8.39108 8.38999C8.49279 8.28827 8.61375 8.20783 8.74689 8.15336C8.88003 8.09889 9.02268 8.07148 9.16652 8.07273C9.31037 8.07398 9.45252 8.10386 9.58469 8.16064C9.71687 8.21742 9.83641 8.29995 9.93634 8.40342L13 11.4682L16.0637 8.40342C16.1636 8.29995 16.2831 8.21742 16.4153 8.16064C16.5475 8.10386 16.6896 8.07398 16.8335 8.07273C16.9773 8.07148 17.12 8.09889 17.2531 8.15336C17.3863 8.20783 17.5072 8.28827 17.6089 8.38999C17.7107 8.49171 17.7911 8.61266 17.8456 8.7458C17.9 8.87894 17.9274 9.02159 17.9262 9.16544C17.9249 9.30928 17.8951 9.45143 17.8383 9.5836C17.7815 9.71578 17.699 9.83532 17.5955 9.93525L14.5318 13L17.5955 16.0648Z" fill="white"/>
</g>
<defs>
<clipPath id="clip0_908_357">
<rect width="26" height="26" fill="white"/>
</clipPath>
</defs>
</svg>
