<svg width="200" height="76" viewBox="0 0 200 76" fill="none" xmlns="http://www.w3.org/2000/svg">
<path opacity="0.2" d="M166.238 45.8555C166.238 43.0328 135.986 60.7946 100.134 60.7946C64.2554 60.7946 34.0303 43.0328 34.0303 45.8555C34.0303 48.6782 64.2822 69.3958 100.134 69.3958C136.013 69.3958 166.238 48.6782 166.238 45.8555Z" fill="#51CACD"/>
<path opacity="0.4" d="M166.238 47.7196C166.238 44.8968 135.986 62.6586 100.134 62.6586C64.2554 62.6586 34.0303 44.8968 34.0303 47.7196C34.0303 50.5423 64.2822 71.2599 100.134 71.2599C136.013 71.2599 166.238 50.5423 166.238 47.7196Z" fill="#51CACD"/>
<path d="M166.238 49.5836C166.238 46.7609 135.986 64.5226 100.134 64.5226C64.2554 64.5226 34.0303 46.7609 34.0303 49.5836C34.0303 52.4063 64.2822 73.1239 100.134 73.1239C136.013 73.1239 166.238 52.4063 166.238 49.5836Z" fill="#51CACD"/>
<path d="M2.9209 30.2775H3.96591C4.47502 30.2775 4.74298 29.9579 4.79657 29.452L6.40429 11.9565H12.8887L17.9263 23.993C18.4622 25.3244 18.9713 26.8157 18.9713 26.8157H19.0517C19.0517 26.8157 19.5876 25.3244 20.0967 23.993L25.1342 11.9565H31.6722L33.28 29.452C33.3335 29.9579 33.5479 30.2775 34.057 30.2775H35.102V35.1507H30.8148C28.9927 35.1507 28.43 34.3251 28.3496 32.7008L27.5726 22.9811C27.4922 21.4366 27.4922 18.8802 27.4922 18.8802H27.385C27.385 18.8802 26.7955 20.7442 26.072 22.3686L21.5972 32.2214H16.2382L11.9509 22.3686C11.2542 20.7708 10.7183 18.8269 10.7183 18.8269H10.6379C10.6379 18.8269 10.6379 21.4099 10.5576 22.9544L9.78049 32.6741C9.64651 34.2985 9.08381 35.124 7.26173 35.124H2.97449V30.2775H2.9209Z" fill="white"/>
<path d="M51.0989 20.5846H51.8223V20.265C51.8223 17.0961 50.5094 15.8446 47.5351 15.8446C46.4901 15.8446 44.4269 16.1108 44.4269 17.3891V18.614H38.9874V16.1641C38.9874 11.9034 45.1503 11.3975 47.4011 11.3975C55.3593 11.3975 57.6369 15.3386 57.6369 20.6112V29.2391C57.6369 29.8782 58.0121 30.251 58.6551 30.251H60.4772V35.1242H55.2254C53.0817 35.1242 52.3047 33.9525 52.3047 32.5677V31.5558H52.2243C52.2779 31.5558 50.2682 35.6567 44.9896 35.6567C40.8363 35.6567 37.2725 33.0737 37.2725 28.7598C37.2457 21.0106 47.3207 20.5846 51.0989 20.5846ZM46.5437 31.2629C49.7323 31.2629 51.9027 27.9875 51.9027 25.1648V24.5257H50.8577C47.8299 24.5257 43.0335 24.9784 43.0335 28.1739C43.0067 29.7184 44.2125 31.2629 46.5437 31.2629Z" fill="white"/>
<path d="M64.3086 17.8683C64.3086 17.1759 63.9335 16.8564 63.2904 16.8564H61.4951V11.9566H66.613C68.7566 11.9566 69.6677 12.862 69.6677 14.9923V24.499C69.6677 25.5908 69.5873 27.0021 69.5337 27.3749H69.6141C69.882 26.7358 70.7931 25.431 71.4362 24.499L80.0375 11.9566H85.7984V29.2656C85.7984 29.9047 86.1736 30.2775 86.7631 30.2775H88.5851V35.1507H83.4672C81.3236 35.1507 80.359 34.2453 80.359 32.1149V22.6615C80.359 21.7561 80.4394 20.3448 80.493 19.7856H80.4394C80.1982 20.3714 79.2604 21.7295 78.6441 22.6615L70.0428 35.1507H64.2818V17.8683H64.3086ZM67.4973 3.46182V2.87598H71.9453V3.46182C71.9453 5.40576 73.4994 6.33778 74.9999 6.33778C76.5005 6.33778 78.1082 5.43239 78.1082 3.43519V2.90261H82.5026V3.48845C82.5026 7.48284 78.9924 9.77296 74.9999 9.77296C71.0074 9.77296 67.4973 7.45621 67.4973 3.46182Z" fill="white"/>
<path d="M90.5952 30.171C94.025 30.0379 95.5255 24.7653 95.5255 18.6139V16.8297H92.6852V11.9299H109.111C111.254 11.9299 112.165 12.8886 112.165 15.0189V29.239C112.165 29.8781 112.54 30.2509 113.184 30.2509H115.006V35.124H109.459C107.315 35.124 106.404 34.2186 106.404 32.035V17.8683C106.404 17.2292 106.029 16.8564 105.386 16.8564H100.992V18.6671C100.992 25.7239 99.384 35.3371 90.5684 35.2572V30.171H90.5952Z" fill="white"/>
<path d="M130.976 20.5846H131.699V20.265C131.699 17.0961 130.386 15.8446 127.412 15.8446C126.367 15.8446 124.304 16.1108 124.304 17.3891V18.614H118.865V16.1641C118.865 11.9034 125.027 11.3975 127.278 11.3975C135.236 11.3975 137.514 15.3386 137.514 20.6112V29.2391C137.514 29.8782 137.889 30.251 138.532 30.251H140.354V35.1242H135.102C132.959 35.1242 132.182 33.9525 132.182 32.5677V31.5558H132.101C132.155 31.5558 130.145 35.6567 124.867 35.6567C120.713 35.6567 117.15 33.0737 117.15 28.7598C117.096 21.0106 127.171 20.5846 130.976 20.5846ZM126.394 31.2629C129.583 31.2629 131.753 27.9875 131.753 25.1648V24.5257H130.708C127.68 24.5257 122.884 24.9784 122.884 28.1739C122.857 29.7184 124.063 31.2629 126.394 31.2629Z" fill="white"/>
<path d="M144.159 17.8683C144.159 17.1759 143.784 16.8564 143.141 16.8564H141.346V11.9566H146.464C148.607 11.9566 149.518 12.862 149.518 14.9923V24.499C149.518 25.5908 149.438 27.0021 149.384 27.3749H149.465C149.733 26.7358 150.644 25.431 151.287 24.499L159.888 11.9566H165.649V29.2656C165.649 29.9047 166.024 30.2775 166.614 30.2775H168.436V35.1507H163.318C161.174 35.1507 160.21 34.2453 160.21 32.1149V22.6615C160.21 21.7561 160.29 20.3448 160.344 19.7856H160.263C160.022 20.3714 159.084 21.7295 158.468 22.6615L149.867 35.1507H144.106V17.8683H144.159ZM147.375 3.46182V2.87598H151.823V3.46182C151.823 5.40576 153.377 6.33778 154.877 6.33778C156.378 6.33778 157.986 5.43239 157.986 3.43519V2.90261H162.38V3.48845C162.38 7.48284 158.87 9.77296 154.877 9.77296C150.885 9.77296 147.375 7.45621 147.375 3.46182Z" fill="white"/>
<path d="M172.696 17.8682C172.696 17.1759 172.321 16.8563 171.678 16.8563H169.855V11.9565H175.402C177.599 11.9565 178.51 12.9152 178.51 15.0455V21.0105H188.425V11.9565H194.239V29.2656C194.239 29.9047 194.614 30.2775 195.257 30.2775H197.079V35.1507H191.533C189.336 35.1507 188.425 34.2453 188.425 32.0617V25.7505H178.51V35.1507H172.696V17.8682Z" fill="white"/>
</svg>
