<svg id="favicon-light" xmlns="http://www.w3.org/2000/svg" version="1.1" xmlns:xlink="http://www.w3.org/1999/xlink" xmlns:svgjs="http://svgjs.com/svgjs" >
    <svg  viewBox="0 0 184 140"  xmlns="http://www.w3.org/2000/svg">
    <rect width="184" height="140" fill="white"></rect>
    <path opacity="0.2" d="M137.024 75.9411C137.024 73.9727 116.452 86.3592 92.0729 86.3592C67.6752 86.3592 47.1222 73.9727 47.1222 75.9411C47.1222 77.9096 67.6935 92.3574 92.0729 92.3574C116.471 92.3574 137.024 77.9096 137.024 75.9411Z" fill="#51CACD"></path>
    <path opacity="0.4" d="M137.024 77.2411C137.024 75.2726 116.452 87.6591 92.0729 87.6591C67.6752 87.6591 47.1222 75.2726 47.1222 77.2411C47.1222 79.2095 67.6935 93.6573 92.0729 93.6573C116.471 93.6573 137.024 79.2095 137.024 77.2411Z" fill="#51CACD"></path>
    <path d="M137.024 78.541C137.024 76.5725 116.452 88.959 92.0729 88.959C67.6752 88.959 47.1222 76.5725 47.1222 78.541C47.1222 80.5095 67.6935 94.9573 92.0729 94.9573C116.471 94.9573 137.024 80.5095 137.024 78.541Z" fill="#51CACD"></path>
    <path d="M25.9678 65.0775H26.6784C27.0246 65.0775 27.2068 64.8546 27.2433 64.5018L28.3365 52.301H32.746L36.1715 60.6949C36.5359 61.6234 36.8821 62.6633 36.8821 62.6633H36.9368C36.9368 62.6633 37.3012 61.6234 37.6474 60.6949L41.0729 52.301H45.5187L46.612 64.5018C46.6484 64.8546 46.7942 65.0775 47.1404 65.0775H47.851V68.4759H44.9357C43.6967 68.4759 43.314 67.9002 43.2594 66.7674L42.731 59.9892C42.6763 58.9121 42.6763 57.1293 42.6763 57.1293H42.6034C42.6034 57.1293 42.2026 58.4293 41.7106 59.5621L38.6677 66.4331H35.0236L32.1082 59.5621C31.6345 58.4478 31.2701 57.0922 31.2701 57.0922H31.2154C31.2154 57.0922 31.2154 58.8935 31.1608 59.9706L30.6324 66.7488C30.5413 67.8816 30.1586 68.4573 28.9196 68.4573H26.0043V65.0775H25.9678Z" fill="#404342"></path>
    <path d="M58.7288 58.3178H59.2208V58.095C59.2208 55.8851 58.328 55.0123 56.3055 55.0123C55.5948 55.0123 54.1918 55.198 54.1918 56.0894V56.9436H50.493V55.2351C50.493 52.2638 54.6838 51.911 56.2144 51.911C61.6259 51.911 63.1747 54.6594 63.1747 58.3364V64.3532C63.1747 64.7989 63.4298 65.0589 63.8671 65.0589H65.1061V68.4573H61.5348C60.0772 68.4573 59.5488 67.6402 59.5488 66.6745V65.9688H59.4941C59.5305 65.9688 58.164 68.8287 54.5745 68.8287C51.7503 68.8287 49.3269 67.0273 49.3269 64.0189C49.3087 58.6149 56.1597 58.3178 58.7288 58.3178ZM55.6313 65.7645C57.7996 65.7645 59.2754 63.4804 59.2754 61.5119V61.0662H58.5648C56.5059 61.0662 53.2444 61.3819 53.2444 63.6104C53.2261 64.6875 54.0461 65.7645 55.6313 65.7645Z" fill="#404342"></path>
    <path d="M67.7117 56.4237C67.7117 55.9408 67.4566 55.718 67.0193 55.718H65.7985V52.301H69.2787C70.7363 52.301 71.3558 52.9324 71.3558 54.4181V61.0477C71.3558 61.8091 71.3012 62.7933 71.2647 63.0533H71.3194C71.5016 62.6076 72.1211 61.6977 72.5584 61.0477L78.4073 52.301H82.3248V64.3718C82.3248 64.8175 82.5798 65.0775 82.9807 65.0775H84.2197V68.4759H80.7395C79.2819 68.4759 78.6259 67.8445 78.6259 66.3588V59.7663C78.6259 59.1349 78.6806 58.1507 78.717 57.7607H78.6806C78.5166 58.1693 77.8789 59.1164 77.4598 59.7663L71.6109 68.4759H67.6935V56.4237H67.7117ZM69.88 46.3771V45.9685H72.9046V46.3771C72.9046 47.7327 73.9614 48.3827 74.9818 48.3827C76.0021 48.3827 77.0954 47.7513 77.0954 46.3585V45.9871H80.0836V46.3956C80.0836 49.1812 77.6967 50.7782 74.9818 50.7782C72.2669 50.7782 69.88 49.1626 69.88 46.3771Z" fill="#404342"></path>
    <path d="M85.5863 65.0032C87.9185 64.9104 88.9389 61.2334 88.9389 56.9436V55.6994H87.0075V52.2825H98.1768C99.6345 52.2825 100.254 52.951 100.254 54.4366V64.3532C100.254 64.7989 100.509 65.0589 100.946 65.0589H102.185V68.4573H98.4137C96.956 68.4573 96.3365 67.8259 96.3365 66.3031V56.4237C96.3365 55.978 96.0814 55.718 95.6441 55.718H92.6559V56.9808C92.6559 61.902 91.5627 68.6059 85.568 68.5502V65.0032H85.5863Z" fill="#404342"></path>
    <path d="M113.045 58.3178H113.537V58.095C113.537 55.8851 112.644 55.0123 110.622 55.0123C109.911 55.0123 108.508 55.198 108.508 56.0894V56.9436H104.809V55.2351C104.809 52.2638 109 51.911 110.531 51.911C115.942 51.911 117.491 54.6594 117.491 58.3364V64.3532C117.491 64.7989 117.746 65.0589 118.183 65.0589H119.422V68.4573H115.851C114.393 68.4573 113.865 67.6402 113.865 66.6745V65.9688H113.81C113.847 65.9688 112.48 68.8287 108.891 68.8287C106.066 68.8287 103.643 67.0273 103.643 64.0189C103.607 58.6149 110.458 58.3178 113.045 58.3178ZM109.929 65.7645C112.098 65.7645 113.573 63.4804 113.573 61.5119V61.0662H112.863C110.804 61.0662 107.542 61.3819 107.542 63.6104C107.524 64.6875 108.344 65.7645 109.929 65.7645Z" fill="#404342"></path>
    <path d="M122.01 56.4237C122.01 55.9408 121.755 55.718 121.317 55.718H120.096V52.301H123.577C125.034 52.301 125.654 52.9324 125.654 54.4181V61.0477C125.654 61.8091 125.599 62.7933 125.563 63.0533H125.617C125.8 62.6076 126.419 61.6977 126.856 61.0477L132.705 52.301H136.623V64.3718C136.623 64.8175 136.878 65.0775 137.279 65.0775H138.518V68.4759H135.037C133.58 68.4759 132.924 67.8445 132.924 66.3588V59.7663C132.924 59.1349 132.979 58.1507 133.015 57.7607H132.96C132.796 58.1693 132.159 59.1164 131.74 59.7663L125.891 68.4759H121.973V56.4237H122.01ZM124.196 46.3771V45.9685H127.221V46.3771C127.221 47.7327 128.278 48.3827 129.298 48.3827C130.318 48.3827 131.412 47.7513 131.412 46.3585V45.9871H134.4V46.3956C134.4 49.1812 132.013 50.7782 129.298 50.7782C126.583 50.7782 124.196 49.1626 124.196 46.3771Z" fill="#404342"></path>
    <path d="M141.415 56.4237C141.415 55.9408 141.16 55.718 140.722 55.718H139.483V52.301H143.255C144.749 52.301 145.369 52.9696 145.369 54.4552V58.615H152.11V52.301H156.064V64.3718C156.064 64.8175 156.319 65.0775 156.757 65.0775H157.996V68.4759H154.224C152.73 68.4759 152.11 67.8445 152.11 66.3217V61.9205H145.369V68.4759H141.415V56.4237Z" fill="#404342"></path>
    </svg>
<style>
    @media (prefers-color-scheme: dark){
       #favicon-light {
            display: none;
        }
    }
</style></svg>