<svg width="26" height="26" viewBox="0 0 26 26" fill="none" xmlns="http://www.w3.org/2000/svg">
<g clip-path="url(#clip0_908_348)">
<path d="M13.0684 0C5.88911 0 0.0683594 5.82075 0.0683594 13C0.0683594 20.1793 5.88911 26 13.0684 26C20.2476 26 26.0684 20.1793 26.0684 13C26.0684 5.82075 20.2476 0 13.0684 0ZM19.0906 9.40388L12.8636 18.9215C12.862 18.9231 12.8587 18.9248 12.8587 18.9264C12.8262 18.9751 12.8084 19.0304 12.7677 19.0759C12.7109 19.1376 12.6377 19.1701 12.5727 19.2173C12.5565 19.2286 12.5402 19.2416 12.5224 19.253C12.4216 19.3164 12.3176 19.3586 12.2039 19.3862C12.1665 19.396 12.1324 19.4058 12.0934 19.4123C12.0028 19.4247 11.9111 19.4258 11.8204 19.4155C11.7562 19.4114 11.6926 19.4017 11.6302 19.3862C11.5659 19.3668 11.5033 19.3418 11.4434 19.3115C11.3914 19.2871 11.3361 19.2806 11.2874 19.2498C11.2516 19.227 11.2321 19.1912 11.2012 19.1636C11.1882 19.1523 11.172 19.149 11.159 19.1376L7.53361 15.7852C7.31872 15.5789 7.19335 15.2965 7.18446 14.9987C7.17557 14.7009 7.28385 14.4115 7.48605 14.1927C7.68824 13.9739 7.96821 13.8432 8.26577 13.8286C8.56333 13.814 8.85474 13.9168 9.07736 14.1147L11.7017 16.5425L17.1861 8.15912C17.3512 7.90657 17.6098 7.72994 17.9051 7.66807C18.2004 7.60621 18.5082 7.66419 18.7607 7.82925C19.0133 7.99431 19.1899 8.25294 19.2518 8.54824C19.3137 8.84354 19.2557 9.15132 19.0906 9.40388Z" fill="white"/>
</g>
<defs>
<clipPath id="clip0_908_348">
<rect width="26" height="26" fill="white"/>
</clipPath>
</defs>
</svg>
