<svg viewBox="0 0 24 24" xmlns="http://www.w3.org/2000/svg">
<path d="M12 1C5.92486 1 1 5.92486 1 12C1 18.0751 5.92486 23 12 23C18.0751 23 23 18.0751 23 12C23 5.92486 18.0751 1 12 1ZM17.7174 7.95819L15.7637 17.2852C15.74 17.398 15.6884 17.503 15.6136 17.5907C15.5388 17.6783 15.4431 17.7458 15.3354 17.7868C15.2277 17.8279 15.1114 17.8412 14.9972 17.8256C14.883 17.8099 14.7746 17.7658 14.6819 17.6974L11.8401 15.5979L10.1184 17.2221C10.0959 17.2433 10.0693 17.2599 10.0403 17.2708C10.0113 17.2817 9.98042 17.2867 9.94946 17.2855C9.9185 17.2843 9.88808 17.277 9.85999 17.2639C9.83189 17.2509 9.80668 17.2324 9.78582 17.2094L9.74882 17.1688L10.048 14.2738L15.4399 9.34737C15.4665 9.32304 15.4831 9.28961 15.4863 9.25366C15.4896 9.21772 15.4792 9.18187 15.4573 9.15318C15.4354 9.1245 15.4035 9.10507 15.368 9.09873C15.3325 9.09238 15.2958 9.09958 15.2654 9.1189L8.36979 13.4832L5.4 12.4858C5.32103 12.4593 5.25221 12.409 5.20297 12.3418C5.15374 12.2746 5.1265 12.1938 5.12499 12.1106C5.12348 12.0273 5.14779 11.9455 5.19456 11.8766C5.24134 11.8077 5.3083 11.7549 5.38625 11.7256L17.0059 7.34838C17.0955 7.31465 17.1925 7.30561 17.2869 7.32222C17.3812 7.33883 17.4693 7.38048 17.542 7.4428C17.6147 7.50512 17.6694 7.58583 17.7002 7.6765C17.7311 7.76716 17.737 7.86445 17.7174 7.95819Z" />
</svg>
