<svg viewBox="0 0 24 24"  xmlns="http://www.w3.org/2000/svg">
<g clip-path="url(#clip0_721_159)">
<path d="M13.776 0.959961H10.176C5.08803 0.959961 0.936035 5.11196 0.936035 10.2C0.936035 13.584 2.76004 16.68 5.73604 18.312V21.96C5.73604 22.56 6.21604 23.04 6.81604 23.04C7.10404 23.04 7.39204 22.92 7.58404 22.728L10.872 19.44H13.776C18.864 19.44 23.016 15.288 23.016 10.2C23.016 5.11196 18.888 0.959961 13.776 0.959961ZM11.592 4.96796C11.64 4.94396 11.64 4.91996 11.808 4.91996C11.856 4.91996 11.904 4.91996 11.952 4.91996C12.096 4.91996 12.312 4.94396 12.432 4.94396C13.008 5.01596 13.392 5.08796 13.944 5.35196C14.472 5.59196 14.808 5.83196 15.24 6.26396C15.648 6.67196 15.888 6.98396 16.128 7.46396C16.464 8.13596 16.656 8.92796 16.704 9.81596C16.704 10.128 16.704 10.152 16.656 10.2C16.608 10.248 16.56 10.272 16.488 10.272C16.416 10.272 16.368 10.224 16.32 10.176C16.296 10.128 16.296 10.104 16.272 9.86396C16.248 9.47996 16.224 9.23996 16.176 8.95196C15.96 7.77596 15.384 6.83996 14.472 6.16796C13.728 5.61596 13.056 5.39996 12 5.32796C11.664 5.30396 11.64 5.30396 11.592 5.25596C11.544 5.23196 11.52 5.15996 11.52 5.11196C11.544 5.06396 11.544 5.01596 11.592 4.96796ZM13.416 7.10396C13.056 6.88796 12.48 6.71996 12 6.69596C11.856 6.67196 11.784 6.67196 11.736 6.59996C11.664 6.52796 11.664 6.43196 11.712 6.35996C11.736 6.31196 11.808 6.23996 12.264 6.31196C13.32 6.45596 14.136 6.93596 14.664 7.70396C14.952 8.13596 15.144 8.63996 15.216 9.19196C15.24 9.35996 15.24 9.71996 15.216 9.79196C15.216 9.81596 15.144 9.88796 15.12 9.91196C15.072 9.93596 14.976 9.93596 14.928 9.88796C14.88 9.86396 14.808 9.83996 14.808 9.52796C14.808 9.04796 14.688 8.54396 14.472 8.15996C14.208 7.72796 13.848 7.36796 13.416 7.10396ZM13.728 9.57596C13.68 9.62396 13.536 9.62396 13.464 9.57596C13.416 9.52796 13.392 9.50396 13.392 9.35996C13.368 9.09596 13.32 8.92796 13.248 8.75996C13.08 8.39996 12.768 8.20796 12.24 8.13596C12.024 8.11196 12 8.08796 11.952 8.03996C11.904 7.99196 11.904 7.94396 11.904 7.87196C11.928 7.79996 11.952 7.75196 12 7.72796C12.048 7.70396 12.048 7.70396 12.096 7.70396C12.12 7.70396 12.144 7.70396 12.192 7.70396C12.264 7.70396 12.408 7.72796 12.48 7.72796C12.816 7.79996 13.056 7.91996 13.272 8.11196C13.56 8.37596 13.704 8.66396 13.776 9.11996C13.824 9.47996 13.8 9.52796 13.728 9.57596ZM16.992 14.136C16.92 14.304 16.776 14.52 16.68 14.664C16.488 14.928 16.248 15.192 16.032 15.36C15.984 15.408 15.936 15.432 15.912 15.456C15.864 15.48 15.84 15.504 15.816 15.528C15.624 15.648 15.48 15.744 15.312 15.792C15.192 15.84 15.072 15.84 14.928 15.864C14.88 15.864 14.856 15.864 14.808 15.864C14.592 15.864 14.448 15.816 14.16 15.696C13.92 15.6 13.656 15.48 13.392 15.36L13.32 15.336C13.08 15.216 12.84 15.096 12.6 14.976C12.576 14.952 12.528 14.952 12.504 14.928C12.288 14.808 12.048 14.664 11.832 14.544L11.76 14.52L11.736 14.496C10.248 13.584 9.00004 12.456 7.92004 11.04C7.82404 10.896 7.72803 10.776 7.63203 10.632C7.58403 10.56 7.53604 10.512 7.48804 10.44L7.34404 10.248C7.27204 10.128 7.17604 10.008 7.10404 9.88796L7.08004 9.86396C7.00804 9.74396 6.93604 9.62396 6.86404 9.50396L6.84004 9.47996C6.48004 8.87996 6.19203 8.25596 5.95203 7.63196C5.71203 6.95996 5.64004 6.57596 5.90404 6.09596C6.02404 5.90396 6.43204 5.51996 6.72004 5.30396C7.22404 4.94396 7.44004 4.79996 7.65604 4.77596C7.80004 4.75196 8.06403 4.75196 8.23203 4.82396C8.30403 4.84796 8.42404 4.91996 8.49604 4.94396C8.90404 5.20796 9.86403 6.45596 10.176 7.03196C10.392 7.43996 10.44 7.72796 10.368 7.99196C10.296 8.25596 10.152 8.39996 9.72003 8.75996C9.62403 8.83196 9.52803 8.90396 9.45603 8.97596C9.43203 8.99996 9.43203 8.99996 9.40803 9.02396L9.21603 8.87996L9.33603 8.99996L9.38403 9.04796C9.36003 9.09596 9.31203 9.21596 9.31203 9.31196C9.31203 9.52796 9.48003 10.008 9.72003 10.416C9.91203 10.704 10.248 11.088 10.584 11.4C10.968 11.76 11.328 12 11.712 12.168C12.144 12.384 12.432 12.456 12.576 12.384C12.6 12.36 12.624 12.36 12.648 12.336C12.672 12.312 12.768 12.216 12.936 12C13.152 11.736 13.272 11.592 13.44 11.52C13.488 11.496 13.536 11.472 13.608 11.448C13.92 11.352 14.232 11.376 14.568 11.52C14.784 11.64 15.216 11.88 15.504 12.096C15.864 12.336 16.68 12.984 16.8 13.128C16.944 13.296 17.016 13.488 17.016 13.704C17.088 13.8 17.04 13.968 16.992 14.136Z" />
</g>
<defs>
<clipPath id="clip0_721_159">
<rect width="24" height="24" fill="white"/>
</clipPath>
</defs>
</svg>
