<svg viewBox="0 0 24 24"  xmlns="http://www.w3.org/2000/svg">
<path d="M12.0025 2H11.9975C6.48376 2 2.00001 6.48499 2.00001 12C1.99659 14.1062 2.66332 16.159 3.90376 17.8612L2.65751 21.5762L6.50126 20.3475C8.13172 21.4292 10.0459 22.0042 12.0025 22C17.5163 22 22 17.5137 22 12C22 6.48625 17.5163 2 12.0025 2ZM17.8213 16.1212C17.58 16.8025 16.6225 17.3675 15.8588 17.5325C15.3363 17.6437 14.6538 17.7325 12.3563 16.78C9.41751 15.5625 7.52501 12.5762 7.37751 12.3825C7.23626 12.1887 6.19001 10.8012 6.19001 9.36624C6.19001 7.93124 6.91876 7.23249 7.21251 6.93249C7.45376 6.68624 7.85251 6.57374 8.23501 6.57374C8.35876 6.57374 8.47001 6.57999 8.57001 6.58499C8.86376 6.59749 9.01126 6.615 9.20501 7.07874C9.44626 7.65999 10.0338 9.09499 10.1038 9.24249C10.175 9.38999 10.2463 9.58999 10.1463 9.78374C10.0525 9.98374 9.97001 10.0725 9.82251 10.2425C9.67501 10.4125 9.53501 10.5425 9.38751 10.725C9.25251 10.8837 9.10001 11.0537 9.27001 11.3475C9.44001 11.635 10.0275 12.5937 10.8925 13.3637C12.0088 14.3575 12.9138 14.675 13.2375 14.81C13.4788 14.91 13.7663 14.8862 13.9425 14.6987C14.1663 14.4575 14.4425 14.0575 14.7238 13.6637C14.9238 13.3812 15.1763 13.3462 15.4413 13.4462C15.7113 13.54 17.14 14.2462 17.4338 14.3925C17.7275 14.54 17.9213 14.61 17.9925 14.7337C18.0625 14.8575 18.0625 15.4387 17.8213 16.1212Z" />
</svg>
