<svg  viewBox="0 0 28 28"  xmlns="http://www.w3.org/2000/svg">
<path fill-rule="evenodd" clip-rule="evenodd" d="M17.7472 15.4148C17.9858 14.8741 18.1191 14.2723 18.1191 14.0015C18.1191 11.6543 16.2955 9.75122 14.0463 9.75122C11.7972 9.75122 9.97363 11.6543 9.97363 14.0015C9.97363 16.3486 12.01 17.8885 14.0463 17.8885C15.3489 17.8885 16.5083 17.2514 17.252 16.2594C17.4469 16 17.614 15.7167 17.7472 15.4148ZM14.0463 15.7634C14.5554 15.7634 15.0208 15.5683 15.3787 15.2456C15.8103 14.8565 16.0003 14.2806 16.0003 14.0015C16.0003 12.8279 15.1719 11.8763 14.0463 11.8763C12.9208 11.8763 12.0003 12.8263 12.0003 13.9999C12.0003 14.8103 12.9208 15.7634 14.0463 15.7634Z" />
<path fill-rule="evenodd" clip-rule="evenodd" d="M1.09212 14.2724C1.10803 14.2931 1.07621 14.2527 1.09212 14.2724C0.96764 14.1021 0.970773 13.8996 1.09268 13.7273C1.10161 13.7147 1.11071 13.7016 1.11993 13.6882C4.781 8.34319 9.32105 5.5 14.0142 5.5C18.7025 5.5 23.2385 8.33554 26.8956 13.6698C26.965 13.771 27 13.875 27 13.9995C27 14.1301 26.9593 14.2399 26.8863 14.3461C23.2302 19.6702 18.6982 22.5 14.0142 22.5C9.30912 22.5 4.75717 19.6433 1.09212 14.2724ZM3.93909 13.3525C3.6381 13.7267 3.6381 14.2722 3.93908 14.6465C7.07417 18.5443 10.6042 20.3749 14.0142 20.3749C17.4243 20.3749 20.9543 18.5443 24.0894 14.6465C24.3904 14.2722 24.3904 13.7267 24.0894 13.3525C20.9543 9.45475 17.4243 7.62513 14.0142 7.62513C10.6042 7.62513 7.07417 9.45475 3.93909 13.3525Z" />
</svg>
