<svg  viewBox="0 0 40 30" xmlns="http://www.w3.org/2000/svg">
<g clip-path="url(#clip0_106_117)">
<path d="M30.4507 22.7101V22.8563V28.5369C30.4507 29.2355 31.0143 29.8018 31.7097 29.8018C32.4047 29.8018 32.9686 29.2355 32.9686 28.5369V23.0871V22.95C31.9986 22.9377 31.1579 22.8419 30.4507 22.7101ZM33.3883 22.95V23.0871V28.5369C33.3883 29.2355 33.9517 29.8018 34.6473 29.8018C35.3422 29.8018 35.9062 29.2355 35.9062 28.5369V22.8563V22.7099C35.1991 22.8419 34.3582 22.9377 33.3883 22.95ZM37.3842 9.55598C36.4282 8.28253 35.4788 7.99769 35.2192 7.95494C35.2177 7.95456 35.2157 7.95405 35.2142 7.95368C34.6809 8.46201 33.9628 8.7652 33.1809 8.7652C32.9556 8.7652 32.7292 8.73901 32.5081 8.68716C31.9895 8.56598 31.5257 8.31036 31.1493 7.9519C31.1456 7.95292 31.1407 7.95405 31.1372 7.95481C31.0407 7.97088 30.8494 8.02046 30.5988 8.14075C30.6158 8.38562 30.573 8.63251 30.4706 8.86297C30.3231 9.19385 30.0661 9.45302 29.7545 9.6067C29.9413 10.0015 30.0889 10.4975 30.0873 11.0796C30.0876 11.8337 29.8423 12.6017 29.3586 13.3697L28.9784 15.2469L30.1089 20.8295L30.18 21.1802L30.1766 21.1823L30.2029 21.2994C30.2029 21.2994 29.7895 21.5236 28.9852 21.7732C28.897 21.8068 28.8029 21.8414 28.7018 21.8763C29.5999 22.1984 31.1052 22.5832 33.1783 22.5832C36.7437 22.5832 38.6339 21.4448 38.6339 21.4448L36.5871 11.3383C36.6621 11.4739 36.7378 11.6199 36.8135 11.7773C37.409 13.0144 38.0103 14.9482 38.369 17.9172C38.4193 18.3345 38.7725 18.6406 39.1801 18.6406C39.2131 18.6406 39.2465 18.6385 39.28 18.6346C39.7288 18.5797 40.0484 18.1699 39.9938 17.7191C39.4588 13.3114 38.404 10.9058 37.3842 9.55598Z" />
<path d="M35.8156 6.41114C36.1546 4.94866 35.2494 3.48702 33.7938 3.14646C32.3382 2.80591 30.8834 3.7154 30.5444 5.17788C30.2055 6.64036 31.1107 8.102 32.5662 8.44256C34.0218 8.78311 35.4766 7.87362 35.8156 6.41114Z" />
<path d="M9.8077 6.55817C9.41377 6.35845 9.06466 6.3009 8.83428 6.29053C8.27732 7.0999 7.34759 7.63164 6.29624 7.63164C5.24502 7.63164 4.31529 7.10003 3.75821 6.29065C3.52782 6.3009 3.17859 6.35832 2.78429 6.55791C2.10685 6.89537 1.37678 7.63328 0.866155 8.94113C0.34898 10.2538 0.00176252 12.1515 0 15.0179C0.000251789 15.7587 0.0236682 16.5642 0.0750332 17.4414C0.106255 17.9789 0.55016 18.3939 1.07942 18.3939C1.09931 18.3939 1.1192 18.3932 1.13922 18.3921C1.69467 18.3595 2.1183 17.8808 2.08582 17.323C2.0366 16.4816 2.01431 15.7152 2.01457 15.0178C2.01016 11.9545 2.45469 10.2339 2.89117 9.33588V28.3096C2.89117 29.1735 3.58825 29.8734 4.44761 29.8734C5.30721 29.8734 6.00429 29.1735 6.00429 28.3096V16.8918H6.58781V28.3096C6.58781 29.1735 7.28489 29.8734 8.14425 29.8734C9.00386 29.8734 9.70094 29.1735 9.70094 28.3096V18.6994C9.37361 18.4392 9.15468 18.0456 9.12849 17.5974C9.07814 16.738 9.05245 15.9124 9.0522 15.1444C9.05384 12.8714 9.26723 11.0537 9.70094 9.61643V9.34196C9.71793 9.37674 9.73493 9.41317 9.75167 9.45035C9.81475 9.25354 9.88185 9.06356 9.95361 8.88143C10.2044 8.23914 10.4971 7.74054 10.7986 7.35072C10.4763 6.98037 10.1325 6.72095 9.8077 6.55817Z" />
<path d="M6.29625 7.37831C7.86067 7.37831 9.12888 6.10416 9.12888 4.53242C9.12888 2.96067 7.86067 1.68652 6.29625 1.68652C4.73183 1.68652 3.46362 2.96067 3.46362 4.53242C3.46362 6.10416 4.73183 7.37831 6.29625 7.37831Z" />
<path d="M19.2574 16.2164V16.0407V8.22738C19.6592 8.14605 20.214 8.05296 20.8809 7.9882C20.5372 8.22017 20.1539 8.54561 19.7645 9.00348C19.6981 9.08127 19.6314 9.16311 19.5649 9.24823V12.6719C19.9887 11.5462 20.4505 10.7707 20.8692 10.2419L18.7046 20.9306C18.7046 20.9306 20.5945 22.0689 24.1598 22.0689C27.7252 22.0689 29.6153 20.9306 29.6153 20.9306L28.2804 14.3387C27.5386 15.1337 26.5365 15.9396 25.236 16.7877C25.062 16.9009 24.8612 16.9606 24.6545 16.9606C24.2899 16.9606 23.954 16.7776 23.7558 16.4705C23.6831 16.3575 23.6351 16.2358 23.6087 16.1113C23.4408 16.0404 23.2891 15.9256 23.1737 15.7676C23.1304 15.708 23.0943 15.6455 23.065 15.581L21.9246 15.5232C21.6208 15.5079 21.3866 15.248 21.4018 14.9424C21.4171 14.6371 21.676 14.4019 21.98 14.4175L23.2152 14.4795C23.268 14.4165 23.328 14.3577 23.397 14.3068L24.067 13.813L23.7306 13.5914C23.4761 13.4237 23.405 13.0806 23.572 12.8248C23.739 12.5692 24.0805 12.4977 24.3351 12.6655L25.4947 13.4295C25.5173 13.4446 25.5367 13.4622 25.5561 13.4799C25.6561 13.5364 25.7476 13.6109 25.8267 13.7017C26.0678 13.5002 26.2868 13.3023 26.4835 13.109C25.9944 13.316 25.4107 13.1692 25.0834 12.7207C24.6999 12.1956 24.8126 11.4577 25.3353 11.0728C25.8578 10.6876 26.5919 10.8011 26.9755 11.3257C27.1982 11.6307 27.2522 12.0072 27.1569 12.3451C27.4372 11.9659 27.608 11.6215 27.6681 11.3161L27.3939 9.96185C27.5087 10.0719 27.6107 10.1879 27.6917 10.3065C27.8577 10.5514 27.9451 10.7878 27.9467 11.0778C27.9465 11.4337 27.8036 11.9422 27.2451 12.6462C26.6901 13.3456 25.7268 14.2075 24.2085 15.1951C23.8294 15.4422 23.7212 15.9515 23.9671 16.3325C24.2129 16.7134 24.7196 16.8221 25.0987 16.5751C26.7131 15.5225 27.8056 14.5718 28.5231 13.6737C29.2372 12.7802 29.5839 11.9046 29.5834 11.0778C29.5854 10.3918 29.3388 9.78882 29.0063 9.32627C28.9855 9.29756 28.963 9.27176 28.9417 9.24406C28.9912 9.25152 29.0405 9.25645 29.0897 9.25645C29.4751 9.25645 29.8428 9.03308 30.0104 8.65692C30.2371 8.1463 30.009 7.5479 29.5012 7.32049C28.3332 6.79722 27.1736 6.45141 26.0649 6.22956C25.5433 6.65822 24.8794 6.90992 24.1621 6.90992C23.933 6.90992 23.7026 6.88348 23.4775 6.83087C22.8636 6.68705 22.324 6.35971 21.9142 5.89526C19.9962 5.95762 18.5943 6.28825 18.1267 6.41271H13.4201C13.407 6.41271 13.3944 6.41423 13.3814 6.41473C13.1551 6.41663 12.7738 6.46482 12.3397 6.68478C11.6626 7.02198 10.9325 7.76015 10.4217 9.06774C9.90477 10.3805 9.55756 12.2783 9.55554 15.1447C9.55592 15.8855 9.57946 16.6909 9.63095 17.5681C9.66243 18.1057 10.1063 18.5207 10.6355 18.5209C10.6554 18.5209 10.6752 18.5201 10.6954 18.5189C11.2506 18.486 11.6745 18.007 11.642 17.4492C11.5928 16.6081 11.5702 15.8417 11.5702 15.1445C11.566 12.0806 12.0106 10.36 12.4473 9.46211V28.4361C12.4473 29.3 13.1444 29.9998 14.0038 29.9998C14.8634 29.9998 15.5605 29.3 15.5605 28.4361V17.0183H16.144V17.524V28.4361C16.144 29.3 16.8411 29.9998 17.7004 29.9998C18.56 29.9998 19.2571 29.3 19.2571 28.4361V21.7489C18.504 21.5095 18.1168 21.2994 18.1168 21.2994L19.2574 16.2164Z" />
<path d="M15.8524 5.69178C17.4168 5.69178 18.685 4.41763 18.685 2.84589C18.685 1.27415 17.4168 0 15.8524 0C14.288 0 13.0198 1.27415 13.0198 2.84589C13.0198 4.41763 14.288 5.69178 15.8524 5.69178Z" />
<path d="M21.4321 22.2424V22.3421V28.7024C21.4321 29.4009 21.9958 29.9672 22.6911 29.9672C23.3861 29.9672 23.95 29.4009 23.95 28.7024V22.5729V22.4361C22.9976 22.4262 22.1572 22.3507 21.4321 22.2424ZM24.3698 22.4361V22.5729V28.7024C24.3698 29.4009 24.9331 29.9672 25.6287 29.9672C26.3236 29.9672 26.8876 29.4009 26.8876 28.7024V22.3421V22.2424C26.1626 22.3507 25.3223 22.4262 24.3698 22.4361Z" />
<path d="M26.7965 4.50489C27.1354 3.04241 26.2302 1.58077 24.7747 1.24021C23.3191 0.899655 21.8643 1.80915 21.5253 3.27163C21.1863 4.73411 22.0915 6.19575 23.5471 6.53631C25.0027 6.87686 26.4575 5.96737 26.7965 4.50489Z" />
</g>
<defs>
<clipPath id="clip0_106_117">
<rect width="40" height="30" fill="white"/>
</clipPath>
</defs>
</svg>
