<svg width="32" height="30" viewBox="0 0 32 30" fill="none" xmlns="http://www.w3.org/2000/svg">
<path d="M19.1565 1.06383H11.5374V1.48936H10.0136V2.55319H7.61905V3.82979H6.09524V5.10638H4.35374V7.02128H2.82993V8.08511H2.17687V9.57447H1.30612V26.1702H3.91837V28.5106H8.70748V13.8298H9.14286V12.766H9.79592V12.1277H10.449V11.0638H11.9728V9.57447H20.0272V11.4894H21.551V12.5532H22.2041V13.1915H22.8571V14.2553H23.2925V28.9362H28.0816V25.7447H30.9116V22.766H31.5646V13.8298H31.1293V11.2766H29.8231V8.93617H28.7347V6.59574H27.2109V4.89362H26.1224V4.04255H24.381V2.55319H21.9864V1.48936H19.1565V1.06383Z" fill="#51CACD"/>
<path d="M7.58511 15.0498H5.12778C4.83253 15.0498 4.5933 15.2835 4.5933 15.5718C4.5933 15.8602 4.83253 16.0939 5.12778 16.0939H7.58511C7.88035 16.0939 8.11959 15.8602 8.11959 15.5718C8.11959 15.2835 7.88035 15.0498 7.58511 15.0498ZM7.58511 17.077H5.12778C4.83253 17.077 4.5933 17.3107 4.5933 17.599C4.5933 17.8874 4.83253 18.1211 5.12778 18.1211H7.58511C7.88035 18.1211 8.11959 17.8874 8.11959 17.599C8.11959 17.3107 7.88035 17.077 7.58511 17.077ZM7.58511 19.1042H5.12778C4.83253 19.1042 4.5933 19.3379 4.5933 19.6262C4.5933 19.9146 4.83253 20.1483 5.12778 20.1483H7.58511C7.88035 20.1483 8.11959 19.9146 8.11959 19.6262C8.11959 19.3379 7.88035 19.1042 7.58511 19.1042ZM7.58511 21.1314H5.12778C4.83253 21.1314 4.5933 21.365 4.5933 21.6534C4.5933 21.9418 4.83253 22.1755 5.12778 22.1755H7.58511C7.88035 22.1755 8.11959 21.9418 8.11959 21.6534C8.11959 21.365 7.88035 21.1314 7.58511 21.1314ZM6.35644 23.1677C6.0612 23.1677 5.82196 23.4014 5.82196 23.6898V26.8699C5.82196 27.1582 6.0612 27.3919 6.35644 27.3919C6.65169 27.3919 6.89092 27.1582 6.89092 26.8699V23.6898C6.89092 23.4014 6.65148 23.1677 6.35644 23.1677ZM26.8722 15.0498H24.4148C24.1196 15.0498 23.8804 15.2835 23.8804 15.5718C23.8804 15.8602 24.1196 16.0939 24.4148 16.0939H26.8719C27.1672 16.0939 27.4064 15.8602 27.4064 15.5718C27.4064 15.2835 27.1672 15.0498 26.8722 15.0498ZM26.8722 17.077H24.4148C24.1196 17.077 23.8804 17.3107 23.8804 17.599C23.8804 17.8874 24.1196 18.1211 24.4148 18.1211H26.8719C27.1672 18.1211 27.4064 17.8874 27.4064 17.599C27.4064 17.3107 27.1672 17.077 26.8722 17.077ZM26.8722 19.1042H24.4148C24.1196 19.1042 23.8804 19.3379 23.8804 19.6262C23.8804 19.9146 24.1196 20.1483 24.4148 20.1483H26.8719C27.1672 20.1483 27.4064 19.9146 27.4064 19.6262C27.4064 19.3379 27.1672 19.1042 26.8722 19.1042ZM26.8722 21.1314H24.4148C24.1196 21.1314 23.8804 21.365 23.8804 21.6534C23.8804 21.9418 24.1196 22.1755 24.4148 22.1755H26.8719C27.1672 22.1755 27.4064 21.9418 27.4064 21.6534C27.4064 21.365 27.1672 21.1314 26.8722 21.1314ZM25.6435 23.1677C25.3482 23.1677 25.109 23.4014 25.109 23.6898V26.8699C25.109 27.1582 25.3482 27.3919 25.6435 27.3919C25.9387 27.3919 26.178 27.1582 26.178 26.8699V23.6898C26.178 23.4014 25.9387 23.1677 25.6435 23.1677Z" fill="white"/>
<path d="M16 0C7.17743 0 0 7.01059 0 15.6276V22.0151C0 24.5887 1.26437 27.0164 3.3854 28.5364C4.06205 29.4224 5.13999 30 6.35626 30C8.40118 30 10.0649 28.3752 10.0649 26.3779V15.6276C10.0649 12.431 12.7273 9.83065 16 9.83065C19.2727 9.83065 21.9351 12.4312 21.9351 15.6276V26.3777C21.9351 28.3748 23.5986 29.9998 25.6437 29.9998C26.86 29.9998 27.9379 29.4224 28.6146 28.5362C30.7356 27.0162 32 24.5885 32 22.0149V15.6276C32 7.01059 24.8226 0 16 0ZM25.6435 28.5381C24.4238 28.5381 23.4314 27.569 23.4314 26.3777V15.6276C23.4314 11.6252 20.0975 8.36894 15.9998 8.36894C11.902 8.36894 8.56837 11.6252 8.56837 15.6276V26.3777C8.56837 27.569 7.57594 28.5381 6.35626 28.5381C5.13657 28.5381 4.14436 27.569 4.14436 26.3777V15.6276C4.14436 9.24262 9.46266 4.04811 15.9998 4.04811C22.5369 4.04811 27.8552 9.24262 27.8552 15.6276V26.3779C27.8554 27.5692 26.8634 28.5381 25.6435 28.5381ZM30.5035 22.0151C30.5035 23.3446 30.0917 24.6272 29.352 25.7057V15.6276C29.352 8.43659 23.3621 2.5864 16 2.5864C8.63785 2.5864 2.64803 8.43659 2.64803 15.6276V25.7057C1.90852 24.6272 1.49655 23.3448 1.49655 22.0151V15.6276C1.49655 7.81662 8.00289 1.46171 16 1.46171C23.9971 1.46171 30.5035 7.81662 30.5035 15.6276V22.0151Z" fill="white"/>
</svg>
