<svg width="30" height="30" viewBox="0 0 30 30" fill="none" xmlns="http://www.w3.org/2000/svg">
<g clip-path="url(#clip0_782_159)">
<path d="M11.2071 17.4428C12.219 17.4428 13.0393 16.6226 13.0393 15.6107C13.0393 14.5988 12.219 13.7786 11.2071 13.7786C10.1953 13.7786 9.375 14.5988 9.375 15.6107C9.375 16.6226 10.1953 17.4428 11.2071 17.4428Z" fill="#51CACD"/>
<path d="M18.8249 17.4428C19.8368 17.4428 20.6571 16.6226 20.6571 15.6107C20.6571 14.5988 19.8368 13.7786 18.8249 13.7786C17.8131 13.7786 16.9928 14.5988 16.9928 15.6107C16.9928 16.6226 17.8131 17.4428 18.8249 17.4428Z" fill="#51CACD"/>
<path d="M19.1142 20.3679C18.6321 20.0465 17.9892 20.2072 17.6999 20.6893C17.1856 21.4608 16.1892 21.9429 15.0642 21.9429C13.9392 21.9429 12.9106 21.4608 12.4285 20.6893C12.1071 20.2072 11.4642 20.0786 11.0142 20.3679C10.5321 20.6893 10.4035 21.3322 10.6928 21.7822C11.5606 23.1322 13.2642 24.0001 15.0642 24.0001C16.8642 24.0001 18.5678 23.1643 19.4356 21.7822C19.7249 21.3322 19.5642 20.6893 19.1142 20.3679Z" fill="#51CACD"/>
<path d="M27.7477 13.0905C27.4266 12.8055 26.8807 12.4888 26.1101 12.4255C26.1422 11.2539 26.1101 9.86058 26.0138 8.15063C25.9495 7.26398 25.8211 6.50401 25.5963 5.83903C25.8532 4.54073 26.0138 3.0841 25.7569 1.94414C25.6606 1.53248 25.211 1.27916 24.7936 1.43748C24.5688 1.53248 24.3119 1.59581 24.055 1.69081C24.1193 1.31082 24.1193 0.962498 24.0872 0.614174C24.0229 0.170854 23.5413 -0.114138 23.0917 0.0441906C21.2936 0.709172 18.5321 1.34249 14.9679 1.34249C9.12385 1.34249 4.37156 1.62748 3.92202 8.11896C3.79358 9.82891 3.76147 11.2222 3.82569 12.3938C3.05505 12.4572 2.50917 12.7738 2.18807 13.0588C1.38532 13.7555 1 14.8954 1 16.5421C1 18.6953 1.83486 19.9303 3.60092 20.2786C4.11468 23.2235 6.07339 25.9784 9.31651 28.2267C10.9862 29.3984 12.945 30 15 30C17.055 30 19.0138 29.3984 20.6835 28.2267C23.9266 25.9784 25.8853 23.2552 26.3991 20.2786C28.133 19.8986 29 18.6637 29 16.5104C28.9358 14.9271 28.5505 13.7871 27.7477 13.0905ZM25.5642 18.3787C24.922 18.442 24.4404 18.917 24.3761 19.5503C24.0872 22.1469 22.4495 24.5218 19.4633 26.6118C16.8303 28.4484 13.1376 28.4484 10.5046 26.6118C7.51835 24.5535 5.84862 22.1786 5.59174 19.582C5.52752 18.9487 5.04587 18.4737 4.40367 18.4103C3.63303 18.347 3.08716 18.2837 3.08716 16.5737C3.08716 15.2438 3.40826 14.7688 3.60092 14.6104C3.66514 14.5471 3.82569 14.4521 4.21101 14.4521C4.27523 15.0854 4.33945 15.6554 4.43578 16.0037C4.59633 16.7004 6.42661 16.6687 6.52294 16.0354C6.61927 15.5287 6.20183 12.0772 7.83945 9.03727C9.54128 9.73391 12.1422 10.1772 15.0321 10.1772C17.922 10.1772 20.5229 9.73391 22.2248 9.03727C23.8624 12.0772 23.445 15.4971 23.5413 16.0354C23.6376 16.637 25.4679 16.6687 25.6284 16.0037C25.7248 15.6871 25.789 15.0854 25.8532 14.4521C26.2385 14.4521 26.3991 14.5788 26.4633 14.6104C26.656 14.7688 26.9771 15.2438 26.9771 16.5737C26.8807 18.252 26.3349 18.3153 25.5642 18.3787Z" fill="#51CACD"/>
</g>
<defs>
<clipPath id="clip0_782_159">
<rect width="30" height="30" fill="white"/>
</clipPath>
</defs>
</svg>
