<svg width="24" height="24" viewBox="0 0 24 24" fill="none" xmlns="http://www.w3.org/2000/svg">
<path fill-rule="evenodd" clip-rule="evenodd" d="M7.60125 8.67751C8.94043 11.3461 12.654 15.0596 15.3226 16.3988L17.1825 14.6237C17.7345 14.0968 18.6083 14.107 19.1478 14.6466L21.9516 17.4504C22.2392 17.738 22.3785 18.094 22.3623 18.5005C22.3462 18.907 22.1791 19.2509 21.8696 19.5148L18.5292 22.363C12.4126 22.4532 1.54411 11.7738 1.63707 5.47084L4.48524 2.13048C4.74919 1.82092 5.09302 1.6539 5.49952 1.63773C5.90607 1.62161 6.26204 1.76082 6.54966 2.0485L9.35344 4.85232C9.89302 5.39186 9.90319 6.26561 9.37636 6.81761L7.60125 8.67751ZM13.7287 4.27703C15.2432 4.27703 16.6144 4.89086 17.6069 5.88334C18.5993 6.87578 19.2132 8.24692 19.2132 9.76145C19.2132 10.0721 19.465 10.324 19.7757 10.324C20.0863 10.324 20.3382 10.0721 20.3382 9.76145C20.3382 7.93637 19.5983 6.28398 18.4022 5.08792C17.2061 3.89181 15.5537 3.15203 13.7286 3.15203C13.418 3.15203 13.1661 3.40389 13.1661 3.71453C13.1662 4.02517 13.418 4.27703 13.7287 4.27703ZM13.7287 7.21609C14.4316 7.21609 15.068 7.501 15.5286 7.96159C15.9892 8.42218 16.2741 9.05856 16.2741 9.7615C16.2741 10.0721 16.5259 10.324 16.8366 10.324C17.1472 10.324 17.3991 10.0721 17.3991 9.7615C17.3991 8.74801 16.9882 7.83039 16.324 7.16617C15.6598 6.50195 14.7421 6.09109 13.7287 6.09109C13.418 6.09109 13.1662 6.34295 13.1662 6.65359C13.1662 6.96423 13.418 7.21609 13.7287 7.21609Z" fill="#51CACD"/>
</svg>
