<svg width="30" height="30" viewBox="0 0 30 30" fill="none" xmlns="http://www.w3.org/2000/svg">
<g clip-path="url(#clip0_757_225)">
<path d="M15 0.46875C6.97266 0.46875 0.46875 6.97266 0.46875 15C0.46875 23.0273 6.97266 29.5312 15 29.5312C23.0273 29.5312 29.5312 23.0273 29.5312 15C29.5312 6.97266 23.0273 0.46875 15 0.46875ZM20.4193 18.8086L19.2475 20.2734C19.1706 20.3696 19.0755 20.4496 18.9676 20.509C18.8598 20.5684 18.7413 20.606 18.6189 20.6196C18.4965 20.6332 18.3727 20.6226 18.2544 20.5883C18.1362 20.5541 18.0258 20.4968 17.9297 20.4199L14.0039 17.5066C13.7296 17.287 13.5082 17.0085 13.3561 16.6918C13.2039 16.375 13.125 16.0281 13.125 15.6768V6.5625C13.125 6.31386 13.2238 6.0754 13.3996 5.89959C13.5754 5.72377 13.8139 5.625 14.0625 5.625H15.9375C16.1861 5.625 16.4246 5.72377 16.6004 5.89959C16.7762 6.0754 16.875 6.31386 16.875 6.5625V15L20.2734 17.4902C20.3696 17.5672 20.4497 17.6623 20.5091 17.7703C20.5685 17.8782 20.606 17.9967 20.6196 18.1192C20.6331 18.2416 20.6224 18.3655 20.5881 18.4838C20.5537 18.6021 20.4964 18.7125 20.4193 18.8086Z" fill="white"/>
</g>
<defs>
<clipPath id="clip0_757_225">
<rect width="30" height="30" fill="white"/>
</clipPath>
</defs>
</svg>
