<svg viewBox="0 0 30 30" xmlns="http://www.w3.org/2000/svg">
    <path d="M19.2188 13.5936C19.2188 13.9666 19.0706 14.3243 18.8069 14.588C18.5431 14.8517 18.1855 14.9999 17.8125 14.9999H12.1875C11.8145 14.9999 11.4569 14.8517 11.1931 14.588C10.9294 14.3243 10.7812 13.9666 10.7812 13.5936V12.6561H3.68438C3.95811 13.4268 4.3642 14.1438 4.88438 14.7749C5.88856 16.0318 6.56935 17.5157 6.86719 19.0968C7.25156 20.9718 7.725 23.2639 8.05313 24.853C8.1618 25.3731 8.44398 25.8409 8.85341 26.1796C9.26284 26.5183 9.7752 26.7078 10.3065 26.7171C10.8378 26.7263 11.3564 26.5548 11.7774 26.2306C12.1984 25.9064 12.4967 25.4487 12.6234 24.9327L13.6359 20.7983C13.7121 20.4942 13.8878 20.2244 14.1349 20.0315C14.382 19.8387 14.6865 19.7339 15 19.7339C15.3135 19.7339 15.618 19.8387 15.8651 20.0315C16.1122 20.2244 16.2879 20.4942 16.3641 20.7983L17.3766 24.9327C17.5043 25.4485 17.8035 25.9057 18.2252 26.2291C18.6469 26.5525 19.166 26.723 19.6973 26.7127C20.2286 26.7023 20.7406 26.5117 21.1494 26.1721C21.5581 25.8325 21.8393 25.3641 21.9469 24.8436C22.275 23.2546 22.7484 20.9436 23.1328 19.0874C23.4306 17.5064 24.1114 16.0225 25.1156 14.7655C25.6349 14.1372 26.0409 13.4235 26.3156 12.6561H19.2188V13.5936ZM27.6562 10.7811H26.7188C26.7468 10.4145 26.7468 10.0462 26.7188 9.67957C26.624 8.61506 26.2878 7.58617 25.7357 6.67109C25.1836 5.756 24.4302 4.97881 23.5327 4.39856C22.6352 3.81832 21.6173 3.45029 20.5563 3.32246C19.4952 3.19462 18.419 3.31034 17.4094 3.66082C15.8491 4.20452 14.1509 4.20452 12.5906 3.66082C11.5826 3.31553 10.5094 3.20385 9.45188 3.3342C8.3944 3.46454 7.38037 3.83352 6.4864 4.41324C5.59244 4.99297 4.84191 5.76828 4.29153 6.6806C3.74115 7.59293 3.40531 8.61841 3.30937 9.67957C3.26959 10.0453 3.26018 10.4138 3.28125 10.7811H2.34375C2.21943 10.7811 2.1002 10.8305 2.01229 10.9184C1.92439 11.0063 1.875 11.1256 1.875 11.2499C1.875 11.3742 1.92439 11.4934 2.01229 11.5813C2.1002 11.6692 2.21943 11.7186 2.34375 11.7186H10.7812V10.7811C10.7812 10.4082 10.9294 10.0505 11.1931 9.78676C11.4569 9.52304 11.8145 9.37488 12.1875 9.37488H17.8125C18.1855 9.37488 18.5431 9.52304 18.8069 9.78676C19.0706 10.0505 19.2188 10.4082 19.2188 10.7811V11.7186H27.6562C27.7806 11.7186 27.8998 11.6692 27.9877 11.5813C28.0756 11.4934 28.125 11.3742 28.125 11.2499C28.125 11.1256 28.0756 11.0063 27.9877 10.9184C27.8998 10.8305 27.7806 10.7811 27.6562 10.7811ZM15 7.49988C13.1051 7.46497 11.249 6.95743 9.6 6.02332C9.53636 5.99899 9.47878 5.96108 9.43129 5.91222C9.38379 5.86337 9.34751 5.80475 9.32499 5.74045C9.30246 5.67615 9.29422 5.60771 9.30084 5.53989C9.30747 5.47208 9.3288 5.40653 9.36334 5.3478C9.39789 5.28907 9.44482 5.23858 9.50087 5.19984C9.55693 5.16111 9.62075 5.13505 9.6879 5.1235C9.75505 5.11195 9.82391 5.11517 9.88968 5.13295C9.95545 5.15073 10.0166 5.18263 10.0687 5.22644C11.5803 6.06387 13.2724 6.52228 15 6.56238C16.7215 6.52131 18.4073 6.06286 19.9125 5.22644C19.9647 5.18263 20.0258 5.15073 20.0916 5.13295C20.1573 5.11517 20.2262 5.11195 20.2934 5.1235C20.3605 5.13505 20.4243 5.16111 20.4804 5.19984C20.5364 5.23858 20.5834 5.28907 20.6179 5.3478C20.6525 5.40653 20.6738 5.47208 20.6804 5.53989C20.687 5.60771 20.6788 5.67615 20.6563 5.74045C20.6337 5.80475 20.5975 5.86337 20.55 5.91222C20.5025 5.96108 20.4449 5.99899 20.3813 6.02332C18.7378 6.95442 16.8885 7.46186 15 7.49988Z" fill="white"/>
    <path d="M13.5938 10.7812C13.4694 10.7812 13.3502 10.8306 13.2623 10.9185C13.1744 11.0065 13.125 11.1257 13.125 11.25V11.7188H12.6562C12.5319 11.7188 12.4127 11.7681 12.3248 11.856C12.2369 11.944 12.1875 12.0632 12.1875 12.1875C12.1875 12.3118 12.2369 12.431 12.3248 12.519C12.4127 12.6069 12.5319 12.6562 12.6562 12.6562H13.125V13.125C13.125 13.2493 13.1744 13.3685 13.2623 13.4565C13.3502 13.5444 13.4694 13.5938 13.5938 13.5938C13.7181 13.5938 13.8373 13.5444 13.9252 13.4565C14.0131 13.3685 14.0625 13.2493 14.0625 13.125V12.6562H15.9375V13.125C15.9375 13.2493 15.9869 13.3685 16.0748 13.4565C16.1627 13.5444 16.2819 13.5938 16.4062 13.5938C16.5306 13.5938 16.6498 13.5444 16.7377 13.4565C16.8256 13.3685 16.875 13.2493 16.875 13.125V12.6562H17.3438C17.4681 12.6562 17.5873 12.6069 17.6752 12.519C17.7631 12.431 17.8125 12.3118 17.8125 12.1875C17.8125 12.0632 17.7631 11.944 17.6752 11.856C17.5873 11.7681 17.4681 11.7188 17.3438 11.7188H16.875V11.25C16.875 11.1257 16.8256 11.0065 16.7377 10.9185C16.6498 10.8306 16.5306 10.7812 16.4062 10.7812C16.2819 10.7812 16.1627 10.8306 16.0748 10.9185C15.9869 11.0065 15.9375 11.1257 15.9375 11.25V11.7188H14.0625V11.25C14.0625 11.1257 14.0131 11.0065 13.9252 10.9185C13.8373 10.8306 13.7181 10.7812 13.5938 10.7812Z" fill="white"/>
</svg>
