<svg viewBox="0 0 30 30" xmlns="http://www.w3.org/2000/svg">
    <g clip-path="url(#clip0_135_499)">
        <path d="M26.25 11.25H18.75V5.625C18.75 3.55687 17.0681 1.875 15 1.875H12.1875C11.9389 1.875 11.7004 1.97377 11.5246 2.14959C11.3488 2.3254 11.25 2.56386 11.25 2.8125V7.25063L7.62375 13.5975C7.54217 13.7389 7.49948 13.8993 7.5 14.0625V27.1875C7.5 27.4361 7.59877 27.6746 7.77459 27.8504C7.9504 28.0262 8.18886 28.125 8.4375 28.125H23.4844C24.2096 28.1247 24.9192 27.9142 25.5272 27.5188C26.1352 27.1235 26.6156 26.5603 26.91 25.8975L29.9175 19.1306C29.9718 19.0111 30 18.8813 30 18.75V15C30 12.9319 28.3181 11.25 26.25 11.25ZM0 14.0625V27.1875C0 27.4361 0.0987721 27.6746 0.274587 27.8504C0.450403 28.0262 0.68886 28.125 0.9375 28.125H5.625V13.125H0.9375C0.68886 13.125 0.450403 13.2238 0.274587 13.3996C0.0987721 13.5754 0 13.8139 0 14.0625Z" fill="white"/>
    </g>
    <defs>
        <clipPath id="clip0_135_499">
            <rect width="30" height="30" fill="white"/>
        </clipPath>
    </defs>
</svg>
