<svg width="30" height="30" viewBox="0 0 30 30" fill="none" xmlns="http://www.w3.org/2000/svg">
<path d="M28.0312 16.4062C27.8437 16.125 27.5625 15.9375 27.1875 15.9375C25.125 15.9375 23.1562 16.875 21.9375 18.5625L21.0938 19.6875C20.0625 20.9062 18.4688 21.5625 16.875 21.5625H14.0625C13.5 21.5625 13.125 21.1875 13.125 20.625C13.125 20.0625 13.5 19.6875 14.0625 19.6875H15.8438C17.3438 19.6875 18.75 18.4688 18.75 16.9688V16.875C18.75 16.4062 18.2812 15.9375 17.8125 15.9375H12.0938C8.71875 15.9375 6 17.4375 4.5 19.875L1.96875 23.8125C1.78125 24.0938 1.78125 24.4688 1.96875 24.75L4.78125 29.4375C4.875 29.625 5.15625 29.8125 5.34375 29.9062C5.4375 29.9062 5.4375 29.9062 5.53125 29.9062C5.71875 29.9062 5.90625 29.8125 6.09375 29.7188C9.65625 27.375 13.7812 26.1562 18 26.1562C21.0938 26.1562 23.9062 24.4688 25.4062 21.75L27.9375 17.25C28.125 17.0625 28.125 16.6875 28.0312 16.4062Z" fill="white"/>
<path d="M4.21875 16.8749C4.3125 16.8749 4.5 16.8749 4.59375 16.8749C5.71875 15.8436 7.125 15.0936 8.625 14.6249C8.53125 14.1561 8.4375 13.5936 8.4375 13.1249C8.4375 8.99989 11.8125 5.62489 15.9375 5.62489C20.0625 5.62489 23.4375 8.99989 23.4375 13.1249C23.4375 13.7811 23.3438 14.4374 23.1562 15.0936C24.375 14.4374 25.7812 14.0624 27.1875 14.0624C27.8438 14.0624 28.5 14.3436 28.9688 14.7186C29.0625 14.1561 29.0625 13.6874 29.0625 13.1249C29.0625 12.0936 28.9688 11.0624 28.6875 10.0311C28.5938 9.56239 28.125 9.28114 27.6562 9.28114C26.5312 9.46864 25.4062 8.90614 24.8438 7.87489C24.2812 6.93739 24.375 5.62489 25.0312 4.78114C25.3125 4.40614 25.3125 3.84364 24.9375 3.56239C23.4375 2.15614 21.6562 1.12489 19.6875 0.562393C19.2188 0.468643 18.75 0.656143 18.5625 1.12489C18.0937 2.15614 17.0625 2.81239 15.9375 2.81239C14.8125 2.81239 13.7812 2.15614 13.3125 1.12489C13.125 0.656143 12.6562 0.374893 12.1875 0.562393C10.2188 1.12489 8.4375 2.15614 6.9375 3.65614C6.5625 3.93739 6.5625 4.49989 6.84375 4.87489C7.5 5.81239 7.59375 7.03114 7.03125 7.96864C6.46875 8.90614 5.34375 9.46864 4.21875 9.37489C3.75 9.28114 3.28125 9.65614 3.1875 10.1249C2.90625 11.0624 2.8125 12.0936 2.8125 13.1249C2.8125 14.1561 2.90625 15.1874 3.1875 16.2186C3.28125 16.6874 3.75 16.9686 4.21875 16.8749Z" fill="white"/>
</svg>
