<svg width="30" height="30" viewBox="0 0 30 30" fill="none" xmlns="http://www.w3.org/2000/svg">
<path d="M1.31997 15.69C1.31997 9.53998 5.57997 4.28998 11.52 2.99998L10.68 4.31998C10.59 4.46998 10.62 4.64998 10.77 4.73998C10.83 4.76998 10.89 4.79998 10.92 4.79998C11.01 4.79998 11.13 4.73998 11.16 4.64998L12.36 2.75998C12.39 2.69998 12.42 2.60998 12.39 2.51998C12.36 2.42998 12.33 2.36998 12.27 2.33998L10.35 1.13998C10.2 1.04998 10.02 1.07998 9.92997 1.22998C9.83997 1.37998 9.86997 1.55998 10.02 1.64998L11.34 2.39998C5.15997 3.77998 0.719971 9.26998 0.719971 15.69C0.719971 16.74 0.839971 17.76 1.07997 18.78C1.10997 18.93 1.22997 19.02 1.37997 19.02H1.43997C1.58997 18.99 1.70997 18.81 1.64997 18.66C1.43997 17.67 1.31997 16.68 1.31997 15.69ZM25.74 22.56C25.59 22.47 25.41 22.5 25.32 22.65C22.92 26.43 18.81 28.68 14.34 28.68C10.11 28.68 6.23997 26.67 3.77997 23.28L5.21997 23.61C5.36997 23.64 5.54997 23.55 5.57997 23.4C5.60997 23.25 5.51997 23.07 5.36997 23.04L3.17997 22.53C3.08997 22.5 3.02997 22.53 2.93997 22.56C2.87997 22.59 2.81997 22.68 2.81997 22.74L2.30997 24.93C2.27997 25.08 2.36997 25.26 2.51997 25.29H2.57997C2.72997 25.29 2.84997 25.2 2.87997 25.05L3.23997 23.52C5.78997 27.12 9.89997 29.28 14.34 29.28C19.02 29.28 23.31 26.91 25.83 22.95C25.92 22.83 25.89 22.65 25.74 22.56ZM29.07 17.28L27.75 18.09C27.9 17.31 27.96 16.5 27.96 15.69C27.96 9.02998 23.19 3.38998 16.62 2.27998C16.44 2.24998 16.29 2.36998 16.26 2.51998C16.23 2.66998 16.35 2.84998 16.5 2.87998C22.8 3.89998 27.36 9.29998 27.36 15.69C27.36 16.44 27.3 17.19 27.18 17.91L26.4 16.65C26.31 16.5 26.13 16.47 25.98 16.56C25.83 16.65 25.8 16.83 25.89 16.98L27.06 18.9C27.09 18.96 27.18 19.02 27.24 19.02H27.3C27.36 19.02 27.42 18.99 27.45 18.99L29.37 17.82C29.52 17.73 29.55 17.55 29.46 17.4C29.4 17.22 29.22 17.19 29.07 17.28ZM14.28 16.23C14.55 16.23 14.76 15.99 14.76 15.75C14.76 15.51 14.52 15.27 14.28 15.27C14.01 15.27 13.83 15.48 13.8 15.69V15.75C13.8 16.02 14.01 16.23 14.28 16.23Z" fill="white"/>
<path d="M7.71 15.75C7.71 15.93 7.59 16.05 7.41 16.05H6.75C6.81 17.91 7.56 19.56 8.73 20.85L9.18 20.4C9.3 20.28 9.48 20.28 9.6 20.4C9.72 20.52 9.72 20.7 9.6 20.82L9.15 21.27C10.41 22.44 12.09 23.19 13.95 23.25V22.59C13.95 22.41 14.07 22.29 14.25 22.29C14.43 22.29 14.55 22.41 14.55 22.59V23.25C16.41 23.19 18.06 22.44 19.35 21.27L18.9 20.82C18.78 20.7 18.78 20.52 18.9 20.4C19.02 20.28 19.2 20.28 19.32 20.4L19.77 20.85C20.94 19.59 21.69 17.91 21.75 16.05H21.09C20.91 16.05 20.79 15.93 20.79 15.75C20.79 15.57 20.91 15.45 21.09 15.45H21.75C21.69 13.59 20.94 11.94 19.77 10.65L19.32 11.1C19.26 11.16 19.17 11.19 19.11 11.19C19.05 11.19 18.96 11.16 18.9 11.1C18.78 10.98 18.78 10.8 18.9 10.68L19.35 10.23C18.09 9.06 16.41 8.31 14.55 8.25V8.91C14.55 9.09 14.43 9.21 14.25 9.21C14.07 9.21 13.95 9.09 13.95 8.91V8.25C12.09 8.31 10.44 9.06 9.15 10.23L9.6 10.68C9.72 10.8 9.72 10.98 9.6 11.1C9.54 11.16 9.45 11.19 9.39 11.19C9.33 11.19 9.24 11.16 9.18 11.1L8.73 10.65C7.56 11.91 6.81 13.59 6.75 15.45H7.41C7.59 15.45 7.71 15.6 7.71 15.75ZM10.08 15.39H13.26C13.38 15.09 13.62 14.85 13.92 14.76V10.44C13.92 10.26 14.04 10.14 14.22 10.14C14.4 10.14 14.52 10.26 14.52 10.44V14.7C15 14.82 15.36 15.24 15.36 15.75C15.36 16.35 14.85 16.83 14.28 16.83C13.77 16.83 13.32 16.44 13.23 15.96H10.08C9.9 15.96 9.78 15.84 9.78 15.66C9.78 15.48 9.9 15.39 10.08 15.39Z" fill="white"/>
<path d="M4.02002 15.75C4.02002 21.39 8.61002 25.98 14.25 25.98C19.89 25.98 24.48 21.39 24.48 15.75C24.48 10.11 19.92 5.52002 14.28 5.52002C8.64002 5.52002 4.02002 10.11 4.02002 15.75ZM8.52002 10.02C10.02 8.55002 12.03 7.65002 14.25 7.65002C16.47 7.65002 18.51 8.55002 19.98 10.02H20.01C20.04 10.02 20.01 10.02 20.01 10.05C21.48 11.52 22.38 13.53 22.38 15.78C22.38 18 21.48 20.04 20.01 21.51V21.54C20.01 21.57 20.01 21.54 19.98 21.54C18.51 23.01 16.5 23.91 14.25 23.91C12.03 23.91 9.99002 23.01 8.52002 21.54H8.49002C8.46002 21.54 8.49002 21.54 8.49002 21.51C7.02002 20.04 6.12002 18.03 6.12002 15.78C6.15002 13.53 7.05002 11.52 8.52002 10.02Z" fill="white"/>
</svg>
