<svg width="30" height="30" viewBox="0 0 30 30" fill="none" xmlns="http://www.w3.org/2000/svg">
<path fill-rule="evenodd" clip-rule="evenodd" d="M3.03103 13.4616L4.27322 14.1853C4.56103 14.3531 4.73822 14.6616 4.73822 14.9953C4.73822 15.3281 4.56103 15.6366 4.27322 15.8044L3.03103 16.5291C1.69791 17.3062 1.24041 19.0134 2.00634 20.3541L3.89541 23.6578C4.26759 24.3094 4.88447 24.7847 5.60916 24.9787C6.33384 25.1728 7.10541 25.0697 7.75416 24.6919L8.92509 24.0084C9.21572 23.8397 9.57384 23.8388 9.86447 24.0056C10.156 24.1725 10.3351 24.4828 10.3351 24.8184C10.3351 25.3059 10.3351 25.7944 10.3351 26.2397C10.3351 26.9859 10.6313 27.7013 11.1592 28.2281C11.687 28.7559 12.4023 29.0522 13.1476 29.0522H16.8976C17.6438 29.0522 18.3592 28.7559 18.887 28.2281C19.4138 27.7013 19.7101 26.9859 19.7101 26.2397C19.7101 25.7944 19.7101 25.3059 19.7101 24.8184C19.7101 24.4828 19.8901 24.1725 20.1807 24.0056C20.4723 23.8388 20.8304 23.8397 21.1201 24.0084L22.292 24.6919C22.9398 25.0697 23.7123 25.1728 24.436 24.9787C25.1607 24.7847 25.7776 24.3094 26.1507 23.6578L28.0388 20.3541C28.8057 19.0134 28.3482 17.3062 27.0142 16.5291L25.7729 15.8044C25.4851 15.6366 25.3079 15.3281 25.3079 14.9953C25.3079 14.6616 25.4851 14.3531 25.7729 14.1853L27.0142 13.4616C28.3482 12.6834 28.8057 10.9762 28.0388 9.63562L26.1507 6.33188C25.7776 5.68031 25.1607 5.205 24.436 5.01094C23.7123 4.81687 22.9398 4.92 22.292 5.29781L21.1201 5.98125C20.8304 6.15 20.4723 6.15094 20.1807 5.98406C19.8901 5.81719 19.7101 5.50688 19.7101 5.17125C19.7101 4.68375 19.7101 4.19531 19.7101 3.75C19.7101 3.00375 19.4138 2.28844 18.887 1.76156C18.3592 1.23375 17.6438 0.9375 16.8976 0.9375H13.1476C12.4023 0.9375 11.687 1.23375 11.1592 1.76156C10.6313 2.28844 10.3351 3.00375 10.3351 3.75C10.3351 4.19531 10.3351 4.68375 10.3351 5.17125C10.3351 5.50688 10.156 5.81719 9.86447 5.98406C9.57384 6.15094 9.21572 6.15 8.92603 5.98125L7.75416 5.29781C7.10541 4.92 6.33384 4.81687 5.60916 5.01094C4.88447 5.205 4.26759 5.68031 3.89541 6.33188L2.00634 9.63562C1.24041 10.9762 1.69791 12.6834 3.03103 13.4616ZM14.0626 9.375V14.4694L9.83072 17.0091C9.38634 17.2744 9.24291 17.8509 9.50916 18.2944C9.77447 18.7388 10.351 18.8822 10.7945 18.6159L15.482 15.8034C15.7651 15.6347 15.9376 15.3291 15.9376 15V9.375C15.9376 8.8575 15.5176 8.4375 15.0001 8.4375C14.4826 8.4375 14.0626 8.8575 14.0626 9.375Z" fill="white"/>
</svg>
