<svg width="24" height="24" viewBox="0 0 24 24" fill="none" xmlns="http://www.w3.org/2000/svg">
<path fill-rule="evenodd" clip-rule="evenodd" d="M7.6015 8.67751C8.94067 11.3461 12.6542 15.0596 15.3228 16.3988L17.1827 14.6237C17.7347 14.0968 18.6085 14.107 19.148 14.6466L21.9518 17.4504C22.2395 17.738 22.3787 18.094 22.3626 18.5005C22.3465 18.907 22.1794 19.2509 21.8698 19.5148L18.5295 22.363C12.4129 22.4532 1.54436 11.7738 1.63731 5.47084L4.48548 2.13048C4.74944 1.82092 5.09326 1.6539 5.49976 1.63773C5.90631 1.62161 6.26228 1.76082 6.54991 2.0485L9.35369 4.85232C9.89326 5.39186 9.90344 6.26561 9.37661 6.81761L7.6015 8.67751ZM13.7289 4.27703C15.2435 4.27703 16.6146 4.89086 17.6071 5.88334C18.5996 6.87578 19.2134 8.24692 19.2134 9.76145C19.2134 10.0721 19.4653 10.324 19.7759 10.324C20.0866 10.324 20.3384 10.0721 20.3384 9.76145C20.3384 7.93637 19.5986 6.28398 18.4025 5.08792C17.2064 3.89181 15.554 3.15203 13.7289 3.15203C13.4182 3.15203 13.1664 3.40389 13.1664 3.71453C13.1664 4.02517 13.4183 4.27703 13.7289 4.27703ZM13.7289 7.21609C14.4318 7.21609 15.0682 7.501 15.5288 7.96159C15.9894 8.42218 16.2743 9.05856 16.2743 9.7615C16.2743 10.0721 16.5262 10.324 16.8368 10.324C17.1475 10.324 17.3993 10.0721 17.3993 9.7615C17.3993 8.74801 16.9885 7.83039 16.3242 7.16617C15.66 6.50195 14.7424 6.09109 13.7289 6.09109C13.4183 6.09109 13.1664 6.34295 13.1664 6.65359C13.1664 6.96423 13.4183 7.21609 13.7289 7.21609Z" fill="#51CACD"/>
</svg>
